<mxfile><diagram id="bEI8fZOyiN0MQFK2aECI" name="第 1 页"><mxGraphModel dx="1640" dy="934" grid="1" gridSize="10" guides="1" tooltips="1" connect="1" arrows="1" fold="1" page="1" pageScale="1" pageWidth="827" pageHeight="1169" math="0" shadow="0"><root><mxCell id="0"/><mxCell id="1" parent="0"/><mxCell id="5" value="" style="edgeStyle=none;html=1;" edge="1" parent="1" source="2" target="4"><mxGeometry relative="1" as="geometry"/></mxCell><mxCell id="2" value="开始" style="ellipse;whiteSpace=wrap;html=1;" vertex="1" parent="1"><mxGeometry x="90" y="70" width="120" height="80" as="geometry"/></mxCell><mxCell id="7" value="" style="edgeStyle=none;html=1;" edge="1" parent="1" source="4" target="6"><mxGeometry relative="1" as="geometry"/></mxCell><mxCell id="4" value="用户输入查询条件和分页参数" style="whiteSpace=wrap;html=1;" vertex="1" parent="1"><mxGeometry x="90" y="240" width="120" height="60" as="geometry"/></mxCell><mxCell id="9" value="" style="edgeStyle=none;html=1;" edge="1" parent="1" source="6" target="8"><mxGeometry relative="1" as="geometry"/></mxCell><mxCell id="6" value="前端传入数据" style="whiteSpace=wrap;html=1;" vertex="1" parent="1"><mxGeometry x="90" y="380" width="120" height="60" as="geometry"/></mxCell><mxCell id="11" value="" style="edgeStyle=none;html=1;" edge="1" parent="1" source="8" target="10"><mxGeometry relative="1" as="geometry"/></mxCell><mxCell id="8" value="查询数据&lt;br&gt;是否合法" style="rhombus;whiteSpace=wrap;html=1;" vertex="1" parent="1"><mxGeometry x="110" y="510" width="80" height="80" as="geometry"/></mxCell><mxCell id="13" value="" style="edgeStyle=none;html=1;" edge="1" parent="1" source="10" target="12"><mxGeometry relative="1" as="geometry"/></mxCell><mxCell id="10" value="服务器数据查询" style="whiteSpace=wrap;html=1;" vertex="1" parent="1"><mxGeometry x="90" y="680" width="120" height="60" as="geometry"/></mxCell><mxCell id="15" value="" style="edgeStyle=none;html=1;" edge="1" parent="1" source="12" target="14"><mxGeometry relative="1" as="geometry"/></mxCell><mxCell id="12" value="返回前端结果" style="whiteSpace=wrap;html=1;" vertex="1" parent="1"><mxGeometry x="90" y="820" width="120" height="60" as="geometry"/></mxCell><mxCell id="14" value="结束" style="ellipse;whiteSpace=wrap;html=1;" vertex="1" parent="1"><mxGeometry x="95" y="940" width="110" height="80" as="geometry"/></mxCell><mxCell id="16" value="" style="edgeStyle=none;html=1;" edge="1" parent="1" source="17" target="19"><mxGeometry relative="1" as="geometry"/></mxCell><mxCell id="17" value="开始" style="ellipse;whiteSpace=wrap;html=1;" vertex="1" parent="1"><mxGeometry x="380" y="75" width="120" height="80" as="geometry"/></mxCell><mxCell id="18" value="" style="edgeStyle=none;html=1;" edge="1" parent="1" source="19" target="21"><mxGeometry relative="1" as="geometry"/></mxCell><mxCell id="19" value="用户填入SIP文件本地地址" style="whiteSpace=wrap;html=1;" vertex="1" parent="1"><mxGeometry x="380" y="245" width="120" height="60" as="geometry"/></mxCell><mxCell id="20" value="" style="edgeStyle=none;html=1;" edge="1" parent="1" source="21" target="23"><mxGeometry relative="1" as="geometry"/></mxCell><mxCell id="21" value="前端传入数据" style="whiteSpace=wrap;html=1;" vertex="1" parent="1"><mxGeometry x="380" y="385" width="120" height="60" as="geometry"/></mxCell><mxCell id="22" value="" style="edgeStyle=none;html=1;" edge="1" parent="1" source="23" target="25"><mxGeometry relative="1" as="geometry"/></mxCell><mxCell id="23" value="验证SIP&lt;br&gt;文件合法性" style="rhombus;whiteSpace=wrap;html=1;" vertex="1" parent="1"><mxGeometry x="400" y="515" width="80" height="80" as="geometry"/></mxCell><mxCell id="24" value="" style="edgeStyle=none;html=1;" edge="1" parent="1" source="25" target="27"><mxGeometry relative="1" as="geometry"/></mxCell><mxCell id="25" value="服务器文件传入" style="whiteSpace=wrap;html=1;" vertex="1" parent="1"><mxGeometry x="380" y="685" width="120" height="60" as="geometry"/></mxCell><mxCell id="26" value="" style="edgeStyle=none;html=1;" edge="1" parent="1" source="27" target="28"><mxGeometry relative="1" as="geometry"/></mxCell><mxCell id="27" value="返回文件传输结果" style="whiteSpace=wrap;html=1;" vertex="1" parent="1"><mxGeometry x="380" y="825" width="120" height="60" as="geometry"/></mxCell><mxCell id="28" value="结束" style="ellipse;whiteSpace=wrap;html=1;" vertex="1" parent="1"><mxGeometry x="385" y="945" width="110" height="80" as="geometry"/></mxCell><mxCell id="29" value="" style="edgeStyle=none;html=1;" edge="1" parent="1" source="30" target="32"><mxGeometry relative="1" as="geometry"/></mxCell><mxCell id="30" value="开始" style="ellipse;whiteSpace=wrap;html=1;" vertex="1" parent="1"><mxGeometry x="630" y="70" width="120" height="80" as="geometry"/></mxCell><mxCell id="31" value="" style="edgeStyle=none;html=1;" edge="1" parent="1" source="32" target="34"><mxGeometry relative="1" as="geometry"/></mxCell><mxCell id="32" value="用户选择SIP项" style="whiteSpace=wrap;html=1;" vertex="1" parent="1"><mxGeometry x="630" y="240" width="120" height="60" as="geometry"/></mxCell><mxCell id="33" value="" style="edgeStyle=none;html=1;" edge="1" parent="1" source="34" target="36"><mxGeometry relative="1" as="geometry"/></mxCell><mxCell id="34" value="前端传入删除项" style="whiteSpace=wrap;html=1;" vertex="1" parent="1"><mxGeometry x="630" y="380" width="120" height="60" as="geometry"/></mxCell><mxCell id="35" value="" style="edgeStyle=none;html=1;" edge="1" parent="1" source="36" target="38"><mxGeometry relative="1" as="geometry"/></mxCell><mxCell id="36" value="查询数据&lt;br&gt;是否合法" style="rhombus;whiteSpace=wrap;html=1;" vertex="1" parent="1"><mxGeometry x="650" y="510" width="80" height="80" as="geometry"/></mxCell><mxCell id="37" value="" style="edgeStyle=none;html=1;" edge="1" parent="1" source="38" target="40"><mxGeometry relative="1" as="geometry"/></mxCell><mxCell id="38" value="服务器文件删除" style="whiteSpace=wrap;html=1;" vertex="1" parent="1"><mxGeometry x="630" y="680" width="120" height="60" as="geometry"/></mxCell><mxCell id="39" value="" style="edgeStyle=none;html=1;" edge="1" parent="1" source="40" target="41"><mxGeometry relative="1" as="geometry"/></mxCell><mxCell id="40" value="返回前端结果" style="whiteSpace=wrap;html=1;" vertex="1" parent="1"><mxGeometry x="630" y="820" width="120" height="60" as="geometry"/></mxCell><mxCell id="41" value="结束" style="ellipse;whiteSpace=wrap;html=1;" vertex="1" parent="1"><mxGeometry x="635" y="940" width="110" height="80" as="geometry"/></mxCell><mxCell id="42" value="" style="edgeStyle=none;html=1;" edge="1" parent="1" source="43" target="45"><mxGeometry relative="1" as="geometry"/></mxCell><mxCell id="43" value="开始" style="ellipse;whiteSpace=wrap;html=1;" vertex="1" parent="1"><mxGeometry x="850" y="75" width="120" height="80" as="geometry"/></mxCell><mxCell id="44" value="" style="edgeStyle=none;html=1;" edge="1" parent="1" source="45" target="47"><mxGeometry relative="1" as="geometry"/></mxCell><mxCell id="45" value="用户选择SIP项" style="whiteSpace=wrap;html=1;" vertex="1" parent="1"><mxGeometry x="850" y="245" width="120" height="60" as="geometry"/></mxCell><mxCell id="46" value="" style="edgeStyle=none;html=1;" edge="1" parent="1" source="47" target="49"><mxGeometry relative="1" as="geometry"/></mxCell><mxCell id="47" value="前端传入修改项" style="whiteSpace=wrap;html=1;" vertex="1" parent="1"><mxGeometry x="850" y="385" width="120" height="60" as="geometry"/></mxCell><mxCell id="48" value="" style="edgeStyle=none;html=1;" edge="1" parent="1" source="49" target="51"><mxGeometry relative="1" as="geometry"/></mxCell><mxCell id="49" value="查询数据&lt;br&gt;是否合法" style="rhombus;whiteSpace=wrap;html=1;" vertex="1" parent="1"><mxGeometry x="870" y="515" width="80" height="80" as="geometry"/></mxCell><mxCell id="50" value="" style="edgeStyle=none;html=1;" edge="1" parent="1" source="51" target="53"><mxGeometry relative="1" as="geometry"/></mxCell><mxCell id="51" value="服务器文件修改" style="whiteSpace=wrap;html=1;" vertex="1" parent="1"><mxGeometry x="850" y="685" width="120" height="60" as="geometry"/></mxCell><mxCell id="52" value="" style="edgeStyle=none;html=1;" edge="1" parent="1" source="53" target="54"><mxGeometry relative="1" as="geometry"/></mxCell><mxCell id="53" value="返回前端结果" style="whiteSpace=wrap;html=1;" vertex="1" parent="1"><mxGeometry x="850" y="825" width="120" height="60" as="geometry"/></mxCell><mxCell id="54" value="结束" style="ellipse;whiteSpace=wrap;html=1;" vertex="1" parent="1"><mxGeometry x="855" y="945" width="110" height="80" as="geometry"/></mxCell><mxCell id="55" value="" style="edgeStyle=none;html=1;" edge="1" parent="1" source="56" target="58"><mxGeometry relative="1" as="geometry"/></mxCell><mxCell id="56" value="开始" style="ellipse;whiteSpace=wrap;html=1;" vertex="1" parent="1"><mxGeometry x="1070" y="75" width="120" height="80" as="geometry"/></mxCell><mxCell id="57" value="" style="edgeStyle=none;html=1;" edge="1" parent="1" source="58" target="60"><mxGeometry relative="1" as="geometry"/></mxCell><mxCell id="58" value="用户选择SIP项" style="whiteSpace=wrap;html=1;" vertex="1" parent="1"><mxGeometry x="1070" y="245" width="120" height="60" as="geometry"/></mxCell><mxCell id="59" value="" style="edgeStyle=none;html=1;" edge="1" parent="1" source="60" target="62"><mxGeometry relative="1" as="geometry"/></mxCell><mxCell id="60" value="前端添加数据" style="whiteSpace=wrap;html=1;" vertex="1" parent="1"><mxGeometry x="1070" y="385" width="120" height="60" as="geometry"/></mxCell><mxCell id="61" value="" style="edgeStyle=none;html=1;" edge="1" parent="1" source="62" target="64"><mxGeometry relative="1" as="geometry"/></mxCell><mxCell id="62" value="查询数据&lt;br&gt;是否合法" style="rhombus;whiteSpace=wrap;html=1;" vertex="1" parent="1"><mxGeometry x="1090" y="515" width="80" height="80" as="geometry"/></mxCell><mxCell id="63" value="" style="edgeStyle=none;html=1;" edge="1" parent="1" source="64" target="66"><mxGeometry relative="1" as="geometry"/></mxCell><mxCell id="64" value="服务器文件添加" style="whiteSpace=wrap;html=1;" vertex="1" parent="1"><mxGeometry x="1070" y="685" width="120" height="60" as="geometry"/></mxCell><mxCell id="65" value="" style="edgeStyle=none;html=1;" edge="1" parent="1" source="66" target="67"><mxGeometry relative="1" as="geometry"/></mxCell><mxCell id="66" value="返回前端结果" style="whiteSpace=wrap;html=1;" vertex="1" parent="1"><mxGeometry x="1070" y="825" width="120" height="60" as="geometry"/></mxCell><mxCell id="67" value="结束" style="ellipse;whiteSpace=wrap;html=1;" vertex="1" parent="1"><mxGeometry x="1075" y="945" width="110" height="80" as="geometry"/></mxCell><mxCell id="68" value="获取SIP列表(条件+分页)" style="text;html=1;strokeColor=#6c8ebf;fillColor=#dae8fc;align=center;verticalAlign=middle;whiteSpace=wrap;rounded=0;" vertex="1" parent="1"><mxGeometry y="20" width="150" height="30" as="geometry"/></mxCell><mxCell id="69" value="上传SIP文件" style="text;html=1;strokeColor=#6c8ebf;fillColor=#dae8fc;align=center;verticalAlign=middle;whiteSpace=wrap;rounded=0;" vertex="1" parent="1"><mxGeometry x="264" y="20" width="150" height="30" as="geometry"/></mxCell><mxCell id="71" value="添加SIP" style="text;html=1;strokeColor=#6c8ebf;fillColor=#dae8fc;align=center;verticalAlign=middle;whiteSpace=wrap;rounded=0;" vertex="1" parent="1"><mxGeometry x="500" y="20" width="150" height="30" as="geometry"/></mxCell><mxCell id="72" value="修改SIP" style="text;html=1;strokeColor=#6c8ebf;fillColor=#dae8fc;align=center;verticalAlign=middle;whiteSpace=wrap;rounded=0;" vertex="1" parent="1"><mxGeometry x="730" y="20" width="150" height="30" as="geometry"/></mxCell><mxCell id="73" value="删除SIP" style="text;html=1;strokeColor=#6c8ebf;fillColor=#dae8fc;align=center;verticalAlign=middle;whiteSpace=wrap;rounded=0;" vertex="1" parent="1"><mxGeometry x="960" y="20" width="150" height="30" as="geometry"/></mxCell></root></mxGraphModel></diagram></mxfile>